<svg width="583" height="595" viewBox="0 0 583 595" fill="none" xmlns="http://www.w3.org/2000/svg">
<g clip-path="url(#clip0_383_1920)">
<path d="M86.0473 306.402C-28.1547 372.336 -28.7573 479.244 84.7012 545.19C198.16 611.137 382.744 611.125 496.946 545.19C611.148 479.256 611.764 372.298 498.305 306.402C384.847 240.507 200.262 240.417 86.0473 306.402Z" fill="#312E81"/>
<path d="M453.922 365.823V376.759C453.922 377.269 453.719 377.758 453.359 378.119C452.998 378.479 452.509 378.682 451.999 378.682C451.489 378.682 451 378.479 450.639 378.119C450.279 377.758 450.076 377.269 450.076 376.759V365.823H453.922Z" fill="#7DD3FC"/>
<path d="M450.089 313.85C450.089 313.34 450.291 312.851 450.652 312.491C451.013 312.13 451.502 311.927 452.012 311.927C452.522 311.927 453.011 312.13 453.372 312.491C453.732 312.851 453.935 313.34 453.935 313.85V365.823H450.089V313.85Z" fill="#263238"/>
<path d="M445.435 310.171C445.617 309.975 445.837 309.82 446.082 309.714C446.327 309.608 446.592 309.554 446.859 309.556C447.126 309.558 447.389 309.616 447.633 309.725C447.876 309.835 448.094 309.994 448.273 310.192C448.452 310.39 448.587 310.624 448.671 310.877C448.754 311.131 448.784 311.399 448.758 311.665C448.733 311.931 448.652 312.188 448.521 312.421C448.39 312.654 448.213 312.857 447.999 313.017L413.385 344.221L410.654 341.503L445.435 310.171Z" fill="#263238"/>
<path d="M404.603 347.042L410.731 341.503L413.461 344.221L407.18 349.888C406.828 350.207 406.372 350.385 405.898 350.388C405.628 350.387 405.362 350.33 405.115 350.222C404.868 350.114 404.645 349.957 404.462 349.76C404.123 349.379 403.948 348.88 403.974 348.372C404 347.863 404.226 347.385 404.603 347.042Z" fill="#7DD3FC"/>
<path d="M499.408 347.042C499.784 347.385 500.01 347.863 500.037 348.372C500.063 348.88 499.888 349.379 499.549 349.76C499.365 349.957 499.143 350.114 498.896 350.222C498.649 350.33 498.383 350.387 498.113 350.388C497.639 350.385 497.182 350.207 496.831 349.888L490.549 344.221L493.267 341.503L499.408 347.042Z" fill="#7DD3FC"/>
<path d="M455.858 310.312C456.026 310.123 456.23 309.969 456.458 309.859C456.687 309.749 456.934 309.686 457.187 309.673C457.44 309.66 457.693 309.697 457.932 309.782C458.17 309.868 458.389 310 458.576 310.171L493.267 341.504L490.549 344.221L455.935 313.017C455.568 312.667 455.354 312.187 455.34 311.68C455.326 311.174 455.512 310.682 455.858 310.312Z" fill="#263238"/>
<path d="M440.692 309.03H463.293V315.581C463.293 317.26 462.165 318.94 459.947 320.222C457.468 321.48 454.728 322.135 451.948 322.135C449.168 322.135 446.427 321.48 443.948 320.222C441.756 318.94 440.653 317.26 440.666 315.581L440.692 309.03Z" fill="#415B68"/>
<path d="M444.063 304.402C439.64 306.966 439.615 311.107 444.063 313.658C446.541 314.922 449.282 315.581 452.063 315.581C454.844 315.581 457.586 314.922 460.063 313.658C464.499 311.094 464.524 306.953 460.063 304.402C457.585 303.14 454.844 302.482 452.063 302.482C449.282 302.482 446.541 303.14 444.063 304.402Z" fill="#455A64"/>
<path d="M455.204 69.498V308.338C455.173 308.614 455.07 308.878 454.906 309.103C454.742 309.327 454.522 309.506 454.268 309.62C453.566 309.98 452.788 310.167 451.999 310.167C451.21 310.167 450.432 309.98 449.73 309.62C449.476 309.507 449.257 309.329 449.094 309.104C448.932 308.878 448.833 308.614 448.807 308.338V69.498H455.204Z" fill="#263238"/>
<path d="M556.676 125.073V330.606L349.168 210.815V4.37158L556.676 125.073Z" fill="#455A64"/>
<path d="M548.996 129.484L356.86 17.7432V206.366L548.996 317.299V129.484Z" fill="#312E81"/>
<path d="M550.83 121.792C549.137 122.893 547.729 124.379 546.72 126.128C545.711 127.877 545.129 129.839 545.022 131.855C545.022 135.548 547.586 136.984 550.868 135.176C552.56 134.074 553.968 132.588 554.977 130.84C555.987 129.091 556.568 127.128 556.676 125.112C556.663 121.369 554.047 119.881 550.83 121.792Z" fill="#263238"/>
<path d="M336.374 10.551C336.374 10.4484 336.374 10.3587 336.374 10.2689C336.374 10.1792 336.374 10.1792 336.374 10.1407V10.0766C336.374 10.0766 336.374 10.0125 336.374 9.97409C336.368 9.88016 336.368 9.78597 336.374 9.69204C336.369 9.59382 336.369 9.4954 336.374 9.39718C336.369 9.30323 336.369 9.20908 336.374 9.11514C336.374 9.01257 336.374 8.92283 336.374 8.82027C336.38 8.78204 336.38 8.74312 336.374 8.70489V8.64079V8.51259L336.451 8.2049C336.478 8.12975 336.5 8.0526 336.515 7.97414V7.89722C336.515 7.79466 336.515 7.6921 336.617 7.58954C336.646 7.48934 336.68 7.39088 336.72 7.29467V7.11519L336.835 6.83315C336.835 6.75623 336.9 6.69212 336.925 6.62802V6.41008C336.973 6.31856 337.016 6.22439 337.053 6.12804L337.207 5.82035C337.207 5.73061 337.297 5.65369 337.335 5.57677L337.502 5.26909L337.592 5.12806V5.06396L337.758 4.80756L337.989 4.43577C338.105 4.25629 338.233 4.08963 338.361 3.91015C338.451 3.79477 338.528 3.67939 338.617 3.57683L338.835 3.3076L339.053 3.03838L339.284 2.7948L339.451 2.62813L339.694 2.38455L339.771 2.32045L339.899 2.20507L340.156 1.97431L340.271 1.88456L340.361 1.82046L340.617 1.61534L340.81 1.48714L341.053 1.3333L341.297 1.17945H341.361L341.54 1.07689L341.784 0.948692H341.938L342.181 0.84613L342.412 0.75639H342.489H342.643L342.887 0.69229H343.002H343.13C343.215 0.685155 343.301 0.685155 343.387 0.69229H343.54H344.22L345.348 0H345.425L345.758 0.0897407L346.194 0.294863L554.983 121.33C554.843 121.244 554.692 121.175 554.535 121.125C554.419 121.077 554.299 121.043 554.176 121.022H553.74H553.637C553.492 121.01 553.346 121.01 553.201 121.022L552.714 121.086L552.201 121.24L551.65 121.471L551.073 121.779C550.881 121.881 550.689 122.009 550.496 122.138C550.317 122.266 550.137 122.394 549.971 122.535C549.804 122.676 549.637 122.817 549.483 122.971H549.419L548.932 123.458C548.765 123.638 548.599 123.83 548.445 124.022C548.291 124.215 548.124 124.42 547.971 124.638C547.83 124.817 547.701 125.022 547.56 125.215L547.33 125.586L547.137 125.907C547.112 125.961 547.082 126.012 547.048 126.061L546.753 126.599V126.663C546.637 126.881 546.535 127.112 546.432 127.343C546.342 127.573 546.24 127.791 546.163 128.022C546.073 128.253 545.996 128.484 545.919 128.714C545.846 128.933 545.786 129.155 545.74 129.381C545.74 129.612 545.65 129.843 545.612 130.061C545.612 130.291 545.548 130.522 545.522 130.753C545.522 130.984 545.522 131.202 545.522 131.432C545.522 131.663 545.522 131.855 545.522 132.06C545.534 132.242 545.56 132.422 545.599 132.599V132.676C545.599 132.843 545.676 132.996 545.727 133.15C545.72 133.18 545.72 133.211 545.727 133.24C545.775 133.38 545.831 133.517 545.894 133.65C545.971 133.804 546.048 133.945 546.125 134.073L546.355 134.368L546.445 134.471C546.445 134.548 546.586 134.612 546.663 134.689L546.753 134.766C546.86 134.854 546.976 134.931 547.099 134.996L338.028 14.5509C337.911 14.477 337.8 14.3956 337.694 14.3073L337.605 14.2304L337.387 14.0253L337.297 13.9227C337.213 13.8302 337.136 13.7316 337.066 13.6278C336.982 13.4999 336.905 13.3672 336.835 13.2304C336.796 13.1429 336.761 13.053 336.733 12.9612C336.729 12.9142 336.729 12.8671 336.733 12.8202C336.729 12.7904 336.729 12.7602 336.733 12.7304C336.727 12.7051 336.727 12.6788 336.733 12.6535C336.696 12.5586 336.67 12.4596 336.656 12.3586C336.65 12.3204 336.65 12.2815 336.656 12.2433V12.051C336.656 12.051 336.656 11.974 336.656 11.9356V11.6663C336.65 11.611 336.65 11.5551 336.656 11.4997V11.3843C336.656 11.2946 336.656 11.2048 336.656 11.1023V10.8202L336.374 10.551Z" fill="#415B68"/>
<path d="M238.299 453.77L147.289 401.13L88.0599 435.604L178.25 487.987L238.299 453.77Z" fill="#E6B5E4"/>
<path d="M238.299 525.447V453.77L178.25 487.987V560.113L238.299 525.447Z" fill="#60A5FA"/>
<path d="M178.25 560.113L88.06 507.73V435.604L178.25 487.987V560.113Z" fill="#60A5FA"/>
<path opacity="0.3" d="M178.25 560.113L88.06 507.73V435.604L178.25 487.987V560.113Z" fill="black"/>
<path d="M245.222 445.654L145.815 388.169L81.15 425.822L179.647 483.025L245.222 445.654Z" fill="#60A5FA"/>
<path d="M245.222 454.949V445.655L179.647 483.025V492.807L245.222 454.949Z" fill="#60A5FA"/>
<path d="M179.647 492.807L81.1499 435.591V425.822L179.647 483.025V492.807Z" fill="#60A5FA"/>
<path opacity="0.3" d="M245.222 454.949V445.655L179.647 483.025V492.807L245.222 454.949Z" fill="white"/>
<path opacity="0.2" d="M179.647 492.807L81.1499 435.591V425.822L179.647 483.025V492.807Z" fill="black"/>
<path d="M188.968 390.887L166.737 377.964L159.584 381.861L182.429 395.079L188.968 390.887Z" fill="#37474F"/>
<path d="M188.968 390.887V409.822L182.57 413.707L182.429 395.079L188.968 390.887Z" fill="#263238"/>
<path d="M222.505 418.245L151.405 377.131L105.149 404.066L175.596 444.988L222.505 418.245Z" fill="#455A64"/>
<path d="M176.404 398.502L150.174 383.336L133.097 393.271L159.097 408.373L176.404 398.502Z" fill="#263238"/>
<path d="M222.505 440.975V418.245L175.596 444.988V468.064L222.505 440.975Z" fill="#37474F"/>
<path d="M175.596 468.064L105.149 427.142V404.066L175.596 444.988V468.064Z" fill="#263238"/>
<path d="M181.545 454.129C181.327 454.269 181.144 454.458 181.011 454.68C180.878 454.902 180.797 455.152 180.776 455.411C180.776 455.898 181.122 456.103 181.545 455.859L202.224 443.924C202.441 443.783 202.623 443.594 202.756 443.372C202.89 443.149 202.971 442.9 202.993 442.642C202.993 442.155 202.647 441.962 202.224 442.206L181.545 454.129Z" fill="#263238"/>
<path d="M181.532 451.27C181.316 451.411 181.135 451.6 181.004 451.822C180.873 452.045 180.795 452.294 180.776 452.552C180.776 453.039 181.122 453.231 181.545 452.988L202.211 441.014C202.429 440.874 202.613 440.685 202.746 440.463C202.879 440.24 202.96 439.99 202.98 439.732C202.98 439.244 202.634 439.052 202.211 439.296L181.532 451.27Z" fill="#263238"/>
<path d="M181.558 457.026C181.34 457.166 181.157 457.355 181.024 457.577C180.89 457.8 180.81 458.05 180.788 458.308C180.788 458.795 181.135 459 181.558 458.757L202.237 446.821C202.452 446.678 202.634 446.489 202.767 446.267C202.9 446.046 202.982 445.797 203.006 445.539C203.006 445.052 202.647 444.86 202.224 445.103L181.558 457.026Z" fill="#263238"/>
<path d="M181.532 448.334C181.315 448.475 181.133 448.664 180.999 448.886C180.866 449.108 180.785 449.358 180.763 449.616C180.763 450.103 181.109 450.295 181.532 450.052L202.211 438.116C202.429 437.976 202.611 437.787 202.745 437.565C202.878 437.343 202.959 437.093 202.98 436.834C203 436.736 202.989 436.635 202.948 436.543C202.907 436.452 202.838 436.376 202.752 436.326C202.665 436.277 202.565 436.256 202.465 436.266C202.366 436.277 202.272 436.319 202.198 436.386L181.532 448.334Z" fill="#263238"/>
<path d="M169.648 454.129C169.866 454.269 170.048 454.458 170.182 454.68C170.315 454.902 170.395 455.152 170.417 455.411C170.417 455.898 170.071 456.103 169.648 455.859L141.264 439.424C141.046 439.283 140.863 439.095 140.73 438.872C140.597 438.65 140.516 438.4 140.495 438.142C140.495 437.655 140.841 437.462 141.264 437.706L169.648 454.129Z" fill="black"/>
<path d="M169.712 451.27C169.928 451.411 170.108 451.6 170.24 451.822C170.371 452.045 170.449 452.294 170.468 452.552C170.468 453.039 170.122 453.231 169.699 452.988L141.315 436.552C141.097 436.413 140.915 436.225 140.783 436.002C140.652 435.779 140.575 435.528 140.559 435.27C140.559 434.783 140.905 434.578 141.328 434.822L169.712 451.27Z" fill="black"/>
<path d="M169.635 457.026C169.855 457.164 170.039 457.352 170.173 457.575C170.306 457.798 170.386 458.049 170.404 458.308C170.404 458.795 170.058 459 169.635 458.757L141.251 442.321C141.034 442.18 140.852 441.991 140.718 441.769C140.585 441.547 140.504 441.297 140.482 441.039C140.482 440.552 140.828 440.36 141.264 440.603L169.635 457.026Z" fill="black"/>
<path d="M169.712 448.334C169.93 448.474 170.113 448.662 170.247 448.885C170.38 449.107 170.46 449.357 170.481 449.616C170.481 450.103 170.135 450.295 169.712 450.052L141.328 433.616C141.11 433.476 140.927 433.287 140.794 433.065C140.661 432.843 140.58 432.593 140.559 432.334C140.559 431.847 140.905 431.655 141.328 431.898L169.712 448.334Z" fill="black"/>
<path d="M136.636 435.103C136.854 435.244 137.036 435.433 137.17 435.655C137.303 435.877 137.383 436.127 137.405 436.385C137.405 436.873 137.059 437.078 136.636 436.834L108.252 420.501C108.035 420.36 107.853 420.171 107.719 419.949C107.586 419.727 107.505 419.477 107.483 419.219C107.483 418.732 107.829 418.54 108.252 418.783L136.636 435.103Z" fill="black"/>
<path d="M136.649 432.206C136.865 432.347 137.047 432.536 137.178 432.758C137.309 432.981 137.387 433.231 137.405 433.488C137.405 433.988 137.059 434.181 136.636 433.937L108.252 417.501C108.034 417.363 107.851 417.174 107.72 416.951C107.588 416.728 107.512 416.478 107.495 416.219C107.495 415.732 107.842 415.527 108.265 415.771L136.649 432.206Z" fill="black"/>
<path d="M136.623 438.001C136.843 438.139 137.027 438.327 137.161 438.55C137.294 438.773 137.374 439.024 137.392 439.283C137.392 439.77 137.046 439.975 136.623 439.732L108.175 423.335C107.958 423.193 107.776 423.004 107.642 422.782C107.509 422.56 107.428 422.311 107.406 422.053C107.406 421.565 107.752 421.373 108.188 421.617L136.623 438.001Z" fill="black"/>
<path d="M136.649 429.309C136.866 429.45 137.048 429.639 137.181 429.861C137.314 430.083 137.395 430.333 137.418 430.591C137.418 431.078 137.072 431.27 136.649 431.027L108.265 414.591C108.047 414.451 107.864 414.262 107.731 414.04C107.597 413.818 107.517 413.568 107.495 413.309C107.495 412.822 107.842 412.617 108.265 412.873L136.649 429.309Z" fill="black"/>
</g>
<defs>
<clipPath id="clip0_383_1920">
<rect width="583" height="595" fill="white"/>
</clipPath>
</defs>
</svg>
